<?xml version="1.0" encoding="UTF-8" standalone="no"?>
<!-- Created with Inkscape (http://www.inkscape.org/) -->

<svg
   xmlns:dc="http://purl.org/dc/elements/1.1/"
   xmlns:cc="http://creativecommons.org/ns#"
   xmlns:rdf="http://www.w3.org/1999/02/22-rdf-syntax-ns#"
   xmlns:svg="http://www.w3.org/2000/svg"
   xmlns="http://www.w3.org/2000/svg"
   xmlns:sodipodi="http://sodipodi.sourceforge.net/DTD/sodipodi-0.dtd"
   xmlns:inkscape="http://www.inkscape.org/namespaces/inkscape"
   width="500"
   height="500"
   viewBox="0 0 500.00001 500.00001"
   id="svg2"
   version="1.1"
   inkscape:version="0.91 r13725"
   sodipodi:docname="favicon.svg">
  <defs
     id="defs4" />
  <sodipodi:namedview
     id="base"
     pagecolor="#ffffff"
     bordercolor="#666666"
     borderopacity="1.0"
     inkscape:pageopacity="0.0"
     inkscape:pageshadow="2"
     inkscape:zoom="1.4"
     inkscape:cx="259.00251"
     inkscape:cy="195.73379"
     inkscape:document-units="px"
     inkscape:current-layer="layer1"
     showgrid="false"
     units="px"
     inkscape:window-width="1920"
     inkscape:window-height="1017"
     inkscape:window-x="-8"
     inkscape:window-y="-8"
     inkscape:window-maximized="1" />
  <metadata
     id="metadata7">
    <rdf:RDF>
      <cc:Work
         rdf:about="">
        <dc:format>image/svg+xml</dc:format>
        <dc:type
           rdf:resource="http://purl.org/dc/dcmitype/StillImage" />
        <dc:title></dc:title>
      </cc:Work>
    </rdf:RDF>
  </metadata>
  <g
     inkscape:label="Calque 1"
     inkscape:groupmode="layer"
     id="layer1"
     transform="translate(0,-552.36216)">
    <path
       style="opacity:1;fill:#ffffff;fill-opacity:1;stroke:none;stroke-width:1;stroke-linecap:round;stroke-miterlimit:4;stroke-dasharray:none;stroke-opacity:1"
       d="m 250,552.36222 a 250,250 0 0 0 -250,250 250,250 0 0 0 250,249.99998 250,250 0 0 0 250,-249.99998 250,250 0 0 0 -250,-250 z m -0.0203,21.15716 c 9.49077,-0.005 18.93878,0.1824 22.11216,0.56692 2.67857,0.32456 7.3539,0.88817 10.38961,1.25177 3.03572,0.3636 6.54221,0.9378 7.79221,1.27587 1.25,0.33807 3.87987,0.90997 5.84416,1.27081 7.26383,1.33437 10.74736,2.09359 12.01298,2.62022 1.27765,0.53163 4.62428,1.46127 9.74026,2.70394 1.42857,0.347 3.18182,0.88734 3.89611,1.20104 0.71428,0.31372 3.92857,1.51591 7.14285,2.67096 3.21429,1.15506 7.01299,2.60431 8.44156,3.22139 1.42857,0.61709 4.20455,1.81959 6.16883,2.67224 1.96429,0.85265 6.63961,3.12624 10.38961,5.05148 3.75,1.92526 7.76786,3.95867 8.92858,4.5201 1.16071,0.56142 2.11039,1.25313 2.11039,1.53587 0,0.28273 0.43831,0.51364 0.97402,0.51364 0.53572,0 0.97403,0.43831 0.97403,0.97402 0,1.28932 -0.35055,1.23306 -2.57584,-0.41218 -2.19936,-1.62606 -3.91767,-1.22715 -3.91767,0.91061 0,0.83264 -0.32861,1.84292 -0.73052,2.24483 -0.90412,0.90411 1.56001,6.3676 3.38627,7.50811 1.15158,0.71917 1.14369,0.807 -0.19278,2.22961 -0.76491,0.81421 -2.12053,1.48006 -3.01339,1.48006 l -1.62338,0 1.44455,1.53841 c 0.79494,0.84616 2.80515,2.23415 4.46682,3.08441 l 3.02101,1.54601 -2.63926,0.19532 c -1.91799,0.14187 -3.14273,0.71907 -4.4757,2.11039 -1.00913,1.05331 -2.50113,1.91507 -3.31651,1.91507 -1.04899,0 -1.91514,0.758 -2.96266,2.59234 -0.81423,1.42581 -1.67822,2.5948 -1.92015,2.5974 -0.24194,0.003 -1.0149,-0.72545 -1.71723,-1.61831 -1.66582,-2.11775 -2.98351,-2.13861 -2.45662,-0.0393 0.50908,2.02831 -0.56281,2.68643 -2.4059,1.4788 -0.7931,-0.51967 -2.38678,-1.15273 -3.54226,-1.40651 -1.15547,-0.25379 -2.10151,-0.73023 -2.10151,-1.059 0,-0.32876 -0.61251,-0.59735 -1.36211,-0.59735 -0.7496,0 -2.28369,-0.38898 -3.40909,-0.86369 -7.24886,-3.05766 -13.26196,-3.84076 -15.64529,-2.0381 -0.69326,0.52436 -2.10139,0.95374 -3.13007,0.95374 -2.03362,0 -3.72617,1.28512 -3.72617,2.82949 0,0.53571 -0.36526,1.36451 -0.81169,1.84279 -0.44642,0.47827 -1.53571,2.25294 -2.42111,3.94303 -0.8854,1.69009 -1.83507,3.073 -2.11039,3.073 -0.27531,0 -0.50467,0.36526 -0.50857,0.81169 -0.004,0.44642 -1.2399,1.3961 -2.74706,2.11039 -4.94686,2.34446 -5.20985,2.87583 -4.34633,8.78145 0.72533,4.96061 2.0953,7.77699 3.78196,7.77699 0.41163,0 1.96499,-0.76824 3.45221,-1.70708 3.10306,-1.95888 4.00595,-1.68997 5.91137,1.76162 0.67338,1.2198 1.77834,3.12553 2.45536,4.23472 1.21472,1.99014 1.21319,2.03659 -0.085,3.53339 -0.72353,0.83423 -1.15948,1.92335 -0.96896,2.41984 0.19053,0.4965 0.34623,1.02505 0.34623,1.17441 0,0.824 2.73619,0.0549 4.80926,-1.35197 1.3157,-0.89285 2.97214,-1.62337 3.68177,-1.62337 1.75621,0 2.17641,-1.44951 1.36846,-4.72048 -0.41152,-1.66602 -0.46612,-3.87862 -0.13952,-5.62221 0.49681,-2.65228 0.3915,-3.02266 -1.34435,-4.75852 -2.68264,-2.68264 -2.7586,-5.74782 -0.19786,-7.9482 1.61128,-1.38454 2.08204,-3.82502 0.88145,-4.56702 -1.14519,-0.70778 0.65813,-2.2537 2.62911,-2.2537 2.78405,0 3.61893,1.47574 2.34882,4.15229 -0.57751,1.21702 -1.05012,2.53343 -1.05012,2.92588 0,0.39246 -0.29221,0.71403 -0.64935,0.71403 -0.83743,0 -0.83315,1.13374 0.008,2.1383 0.36104,0.43135 1.27434,1.60687 2.02923,2.61262 1.59179,2.12077 5.88539,4.98934 7.46753,4.98934 1.0125,0 1.01315,0.0816 0.0127,1.1871 -1.53091,1.69163 -1.34629,2.47581 0.8992,3.80225 1.73872,1.02708 3.20901,3.67893 2.45662,4.43131 -0.14848,0.14849 -1.09358,-0.15626 -2.10024,-0.67852 -3.75109,-1.94609 -4.21261,-1.29516 -2.67476,3.77308 0.51735,1.70501 0.78582,3.5044 0.59608,3.99884 -0.71589,1.86558 -4.3582,2.62453 -12.63444,2.63291 -7.88316,0.008 -8.24213,-0.0512 -10.47965,-1.75401 l -2.31712,-1.76288 0.34877,-4.34507 c 0.3479,-4.33406 0.34566,-4.34372 -1.20865,-3.92781 -0.85694,0.2293 -1.95697,0.42094 -2.44395,0.42613 -1.09559,0.011 -0.50476,4.90743 0.92203,7.64256 1.81587,3.48096 1.02143,4.27156 -5.66279,5.64377 -0.95926,0.19693 -2.63291,1.49662 -3.75787,2.917 -1.11575,1.40875 -3.11322,3.20961 -4.43891,4.00264 -1.3257,0.79303 -3.06233,2.16489 -3.85933,3.04764 -2.65897,2.94501 -7.25116,4.41172 -8.33249,2.66208 -0.26312,-0.42572 -0.83255,0.0884 -1.40396,1.26826 -0.95712,1.97622 -0.97663,1.98318 -5.11491,1.59675 -3.39157,-0.31671 -4.15483,-0.21311 -4.15483,0.5631 0,0.98756 2.82841,3.78196 3.82762,3.78196 0.59344,0 2.66589,3.93526 2.66589,5.06164 0,0.35425 0.48107,0.82748 1.06788,1.05266 0.89981,0.34529 1.00728,1.10999 0.6912,4.88028 -0.49809,5.94122 -2.82669,10.2686 -4.91071,9.12515 -0.58789,-0.32256 -2.45714,-0.89034 -4.15357,-1.26192 -6.81319,-1.49232 -9.28303,-2.14792 -9.9026,-2.62657 -0.35714,-0.27592 -2.11039,-0.69599 -3.8961,-0.93344 -4.52655,-0.60193 -5.61016,0.33302 -6.20181,5.3508 -0.3113,2.64023 -1.36951,5.76614 -3.19221,9.42826 -2.36473,4.75114 -2.74843,6.1195 -2.89418,10.31605 l -0.16741,4.83843 2.98042,0.82564 c 1.63988,0.45363 3.43082,0.94147 3.97854,1.08436 0.54773,0.14289 1.5356,1.17359 2.19536,2.29048 l 1.19851,2.03049 8.61405,-0.2917 c 6.92174,-0.23474 8.82627,-0.50648 9.70094,-1.38114 0.59862,-0.59862 1.43756,-1.08817 1.86307,-1.08817 0.80609,0 0.94906,-0.23028 3.79591,-6.10669 2.26102,-4.66713 5.61385,-8.23808 9.56524,-10.18668 3.48995,-1.72106 5.25188,-4.02463 5.25188,-6.86511 0,-2.96659 1.87258,-3.71233 6.17898,-2.46043 1.9546,0.56824 4.21285,0.84674 5.01851,0.61891 2.0655,-0.58407 5.93193,-2.48922 6.42376,-3.16558 1.38869,-1.90973 6.55182,0.4636 7.60958,3.49787 0.35846,1.02828 1.91402,3.24512 3.45728,4.9272 2.77116,3.02044 10.01144,8.70155 11.0897,8.70155 0.88343,0 6.58242,5.98527 7.59942,7.98118 0.81672,1.6028 0.79602,2.02779 -0.17501,3.67162 -1.40362,2.37618 -1.38867,3.28227 0.0532,3.28227 0.64476,0 1.625,-0.92824 2.22834,-2.11039 1.80286,-3.53237 1.99764,-4.98248 0.8954,-6.66472 -0.56534,-0.86281 -1.02857,-1.87131 -1.02857,-2.24102 0,-1.01764 2.76868,-0.80461 4.40088,0.33862 1.1579,0.81103 1.44328,0.83629 1.44328,0.12556 0,-0.98323 -5.40208,-5.03247 -6.71419,-5.03247 -0.45811,0 -1.46297,-0.85189 -2.23214,-1.89225 -0.76917,-1.04035 -2.22347,-2.07161 -3.23153,-2.29301 -1.00806,-0.22141 -2.55143,-1.3175 -3.43065,-2.43507 -0.87922,-1.11757 -2.64319,-3.22628 -3.9202,-4.68623 -3.75049,-4.28777 -4.49727,-5.70979 -4.49727,-8.57346 0,-3.125 1.24194,-4.05383 2.92842,-2.19029 0.6064,0.67006 1.87359,1.30722 2.81555,1.41665 1.10686,0.12858 1.79861,0.65849 1.95566,1.49782 0.13366,0.71428 0.42915,1.4448 0.65569,1.62337 0.22655,0.17858 0.72224,0.90909 1.10212,1.62338 0.37989,0.71429 2.57145,2.52818 4.87013,4.03054 2.29869,1.50236 4.53263,3.03645 4.96398,3.40909 0.43136,0.37264 1.03121,0.67725 1.33295,0.67725 0.30173,0 1.74367,1.18361 3.2049,2.63038 2.08589,2.06525 2.75276,3.28615 3.10217,5.68182 0.32161,2.20513 1.2408,4.07199 3.31524,6.73067 2.09378,2.68348 2.87008,4.26805 2.87008,5.85811 0,1.79663 0.37464,2.38176 2.12688,3.32539 1.16931,0.62971 3.05252,2.01055 4.18527,3.06919 1.13274,1.05864 2.27107,1.92522 2.53018,1.92522 0.2591,0 1.00738,0.48499 1.66269,1.07803 1.84588,1.67049 2.13699,0.55069 0.61511,-2.36912 -1.6393,-3.14504 -1.75062,-4.55306 -0.35892,-4.55306 0.56122,0 1.44325,-0.4223 1.95947,-0.93852 0.81854,-0.81853 0.43834,-1.47244 -2.96901,-5.1149 -4.36975,-4.67128 -4.87479,-5.99069 -2.08122,-5.43197 1.61596,0.32319 1.89517,0.12774 2.43507,-1.70455 0.51725,-1.75547 0.95372,-2.09813 2.88149,-2.25877 2.26706,-0.18891 2.27593,-0.17921 3.48519,3.8961 0.66675,2.24702 1.45219,4.66949 1.74513,5.38378 0.29294,0.71428 0.70821,1.92698 0.92202,2.69505 0.22253,0.79935 1.12801,1.58163 2.118,1.83011 0.95126,0.23875 2.3401,1.0715 3.08696,1.85039 2.96391,3.09107 9.50917,5.04378 11.6528,3.47632 0.98492,-0.72018 1.60157,-0.7256 3.53972,-0.033 3.56461,1.27385 7.00096,1.11084 8.51511,-0.40331 1.72981,-1.72979 4.92927,-1.71225 5.86319,0.033 1.117,2.08716 0.52626,4.12832 -1.31773,4.55687 -2.85397,0.66329 -5.7979,2.14597 -6.16629,3.10598 -0.58381,1.52137 0.16574,1.64958 2.08755,0.35512 3.48703,-2.34874 4.35611,-2.64176 6.1105,-2.05586 1.84598,0.61648 2.04823,1.44093 2.93603,11.97748 0.67473,8.0078 -0.1361,8.96299 -8.23991,9.71616 -2.48576,0.23103 -4.52009,0.63214 -4.52009,0.89159 0,0.25944 -1.25765,0.82381 -2.79525,1.25431 -3.15676,0.88383 -17.05259,-0.0718 -18.23508,-1.25431 -0.36169,-0.36169 -1.22255,-0.65823 -1.91255,-0.65823 -1.29967,0 -5.62052,-2.36473 -6.39331,-3.49914 -0.24204,-0.35531 -1.90441,-0.62436 -3.69445,-0.59735 -2.70102,0.0407 -3.54239,0.36069 -4.95003,1.87957 -1.47543,1.592 -1.6735,2.30613 -1.51557,5.49284 0.1409,2.84296 -0.0821,3.92878 -0.99812,4.84477 -1.14089,1.14089 -1.39596,1.10658 -7.61593,-0.99813 -3.53927,-1.19761 -6.43516,-2.41278 -6.43516,-2.70139 0,-0.28861 -0.37697,-0.52507 -0.83832,-0.52507 -0.46136,0 -2.11701,-1.30238 -3.67924,-2.89417 -1.56222,-1.59179 -3.6655,-3.07481 -4.67354,-3.29622 -1.00804,-0.22141 -1.99923,-0.67226 -2.20298,-1.00193 -0.20374,-0.32966 -1.15937,-0.59989 -2.12307,-0.59989 -0.96369,0 -4.3789,-1.31114 -7.59056,-2.91446 -3.21164,-1.60332 -6.21194,-2.91818 -6.66598,-2.92208 -0.53918,-0.005 -0.14605,-1.31251 1.13256,-3.76928 1.85405,-3.56244 1.93222,-4.01783 1.47498,-8.6039 l -0.4832,-4.84222 -18.18182,0.006 c -18.89191,0.006 -26.52965,0.69477 -30.84416,2.7813 -3.05352,1.47671 -8.75135,1.26617 -12.54692,-0.46292 -1.63144,-0.7432 -3.27459,-1.3507 -3.65133,-1.3507 -0.37674,0 -0.68487,-0.29221 -0.68487,-0.64935 0,-0.35714 -0.72866,-0.64935 -1.61957,-0.64935 -1.11293,0 -2.78939,1.18165 -5.35714,3.77689 -3.58727,3.62567 -7.31751,5.96337 -9.51705,5.96337 -0.57102,0 -1.0387,0.29221 -1.0387,0.64935 0,0.35714 -0.36526,0.64994 -0.81169,0.65189 -0.75144,0.003 -4.37695,3.18433 -6.10035,5.35334 -0.4087,0.51439 -1.28533,2.76758 -1.94805,5.00583 -0.92985,3.14046 -1.72371,4.46575 -3.47758,5.80611 -3.08996,2.36147 -10.65917,5.9101 -12.60653,5.9101 -1.41629,0 -3.49636,1.21715 -6.22463,3.64246 -1.25,1.11119 -3.49983,2.57183 -5.00076,3.24675 -1.97776,0.88934 -2.84143,1.71924 -3.13642,3.01339 -0.22387,0.98214 -0.67569,1.78572 -1.00446,1.78572 -0.32876,0 -0.59862,0.43831 -0.59862,0.97402 0,0.53572 -0.21916,0.97833 -0.48702,0.98418 -0.26785,0.006 -1.41774,0.80928 -2.55554,1.78571 -1.13779,0.97644 -3.03126,2.50609 -4.2081,3.39894 -1.17684,0.89286 -3.97175,3.46887 -6.21068,5.72494 -3.40772,3.43382 -4.07113,4.46506 -4.07113,6.33117 0,1.22607 0.26986,2.22961 0.59862,2.22961 1.13852,0 1.40181,3.61299 0.43248,5.93293 -0.52932,1.26683 -0.80079,2.92451 -0.60243,3.68304 0.41718,1.59529 -0.95688,7.91649 -1.72103,7.91649 -0.2828,0 -0.71574,0.80082 -0.96134,1.77938 -0.24561,0.97857 -0.64191,1.92824 -0.88144,2.11039 -0.23955,0.18215 -1.00872,1.49984 -1.70962,2.92842 -1.38968,2.83241 -3.1548,4.87013 -4.21825,4.87013 -0.37207,0 -0.69442,0.21915 -0.71656,0.48701 -0.0222,0.26786 -0.12948,4.19804 -0.23717,8.73326 l -0.19531,8.24498 3.19729,1.15031 c 2.71708,0.97705 3.13382,1.34704 2.77749,2.46804 -0.76774,2.41534 -0.39882,3.69056 2.09137,7.21388 3.85153,5.44946 5.23082,8.1544 5.74903,11.27739 0.26343,1.58753 0.80181,3.30765 1.19725,3.82255 2.75162,3.58295 21.1143,21.66882 22.82366,22.47996 1.54911,0.7351 4.22641,1.00573 9.96474,1.00573 7.85969,0 11.49632,0.53854 16.95667,2.5137 3.94366,1.42655 18.13701,1.46845 19.83564,0.0583 0.90853,-0.75421 3.52503,-0.94867 12.75365,-0.94867 6.9966,0 11.79444,0.25804 12.07514,0.64935 0.25617,0.35715 1.03061,0.96082 1.72103,1.34183 0.69041,0.38101 1.56704,1.25764 1.94805,1.94805 0.38101,0.69042 0.86769,1.40168 1.08056,1.58025 0.21286,0.17858 0.57802,1.11061 0.81295,2.07108 0.3629,1.48367 0.87626,1.81338 3.40656,2.19283 3.57675,0.53636 9.89186,-0.11643 11.13915,-1.15159 0.71268,-0.59147 1.48982,-0.10951 3.77689,2.34629 2.65531,2.85121 2.87895,3.35932 2.87895,6.53409 0,1.89341 -0.43543,4.27964 -0.96894,5.30261 -0.53352,1.02297 -0.98202,2.29885 -0.99559,2.83456 -0.0311,1.22904 -1.53503,3.24676 -2.41985,3.24676 -0.36834,0 -0.87047,0.80081 -1.11607,1.77937 -0.2456,0.97857 -0.65924,1.92824 -0.91949,2.11039 -0.26024,0.18215 -0.94095,1.01588 -1.51304,1.85293 -0.92426,1.35234 -0.93557,1.78644 -0.104,3.89611 1.04003,2.6385 2.85567,6.09496 3.4649,6.59496 0.21758,0.17857 1.43563,1.63961 2.70647,3.24676 2.51761,3.18381 4.46302,7.56056 4.46302,10.03957 0,0.86455 0.25856,1.73122 0.57452,1.92649 0.991,0.61247 1.21833,4.33032 0.31961,5.22905 -0.46547,0.46546 -1.32484,2.99691 -1.91001,5.62474 -1.02261,4.5923 -2.20564,6.52399 -4.93862,8.06489 -2.45166,1.38229 -10.99807,9.19193 -13.85577,12.66113 -1.15101,1.3972 -1.21286,1.8519 -0.52379,3.8567 0.42962,1.25 0.79656,2.9499 0.81676,3.7769 0.0201,0.8271 0.31987,2.0322 0.66584,2.6786 0.48213,0.9009 0.15092,1.9141 -1.41919,4.34 -1.12668,1.7408 -2.15489,3.3027 -2.2854,3.4699 -0.13052,0.1672 -1.90276,0.5137 -3.93797,0.7699 -2.0352,0.2563 -6.03845,0.7602 -8.89559,1.1211 -5.84272,0.7381 -40.10735,0.7814 -46.1039,0.058 -13.77188,-1.6605 -16.40216,-2.0369 -17.85714,-2.5569 -0.89286,-0.319 -3.29905,-0.7669 -5.347,-0.9955 -2.04794,-0.2287 -3.86701,-0.6497 -4.04322,-0.9348 -0.1762,-0.2851 -2.08008,-0.7167 -4.23093,-0.96 -2.15085,-0.2434 -3.91132,-0.7209 -3.91132,-1.0603 0,-0.3394 -0.68032,-0.6164 -1.51303,-0.6164 -1.42347,0 -8.93945,-2.0569 -11.79866,-3.229 -0.71428,-0.2929 -3.92857,-1.4533 -7.14286,-2.5784 -3.21428,-1.125 -6.72077,-2.4483 -7.7922,-2.9411 -1.07143,-0.4927 -3.11689,-1.3841 -4.54546,-1.981 -6.92137,-2.8921 -23.20299,-11.2843 -23.59222,-12.1601 -0.11906,-0.2678 -0.57914,-0.487 -1.02223,-0.487 -0.44309,0 -2.24448,-1.02275 -4.00263,-2.27275 -1.75815,-1.25 -3.5379,-2.27273 -3.95571,-2.27273 -0.41781,0 -0.85751,-0.21916 -0.97656,-0.48701 -0.11905,-0.26786 -1.0935,-1.09022 -2.16493,-1.82757 -8.09654,-5.57192 -11.17985,-7.80553 -12.61668,-9.13784 -0.91023,-0.844 -1.83265,-1.53459 -2.04951,-1.53459 -0.21687,0 -0.99422,-0.51137 -1.72738,-1.13637 -0.73316,-0.625 -2.6981,-2.2907 -4.36663,-3.70205 -10.168323,-8.60109 -13.811446,-12.50526 -15.972505,-17.11521 -1.120376,-2.39 -2.444694,-5.12068 -2.943636,-6.06865 -0.498942,-0.94796 -0.908078,-2.31897 -0.908078,-3.04636 0,-0.72739 -0.287993,-1.50066 -0.640467,-1.7185 -0.352468,-0.21784 -1.697845,-2.59464 -2.990565,-5.28231 l -2.351364,-4.88662 1.368461,-1.2746 c 0.752331,-0.7009 1.367182,-1.61244 1.367182,-2.02542 0,-0.41297 0.794104,-1.57981 1.764156,-2.59233 1.505181,-1.57107 1.742636,-2.32582 1.619571,-5.15422 -0.07931,-1.82283 -0.581201,-4.60096 -1.114805,-6.17264 -0.533591,-1.57166 -0.970221,-3.24003 -0.970221,-3.7084 0,-1.73127 -2.272903,-5.35569 -5.152948,-8.2158 -1.630071,-1.6188 -3.548351,-3.68141 -4.262636,-4.58351 -2.103052,-2.65603 -4.22078,-5.7049 -4.22078,-6.07751 0,-0.80416 -10.42138,-12.16768 -15.422075,-16.81591 -1.160714,-1.07889 -2.110389,-2.34956 -2.110389,-2.82441 0,-0.47485 -0.291095,-1.37102 -0.648082,-1.99118 -0.356987,-0.62015 -0.946244,-1.858 -1.308848,-2.75086 -0.362597,-0.89286 -1.236665,-2.5 -1.941711,-3.57143 -0.705052,-1.07143 -1.482902,-2.38636 -1.728642,-2.92208 -0.245734,-0.53571 -0.620091,-1.12013 -0.83198,-1.2987 -0.211897,-0.17857 -0.741645,-1.05519 -1.178217,-1.94805 -1.005,-2.05541 -2.199306,-3.9171 -3.239144,-5.05149 -0.446428,-0.48702 -0.811688,-1.30341 -0.811688,-1.81361 0,-0.5102 -0.259906,-0.92711 -0.578328,-0.92711 -0.721968,0 -1.498979,-2.75502 -1.740057,-6.16883 -0.452142,-6.40254 -3.406472,-23.34511 -4.313362,-24.73747 -0.254805,-0.3912 -0.656853,-1.92529 -0.894125,-3.40909 -0.237266,-1.48379 -0.654079,-2.69759 -0.925833,-2.69759 -0.271746,0 -0.686258,-1.02273 -0.920758,-2.27273 -0.2345,-1.25 -0.723493,-2.27273 -1.086902,-2.27273 -0.363409,0 -0.570849,-0.5273 -0.461648,-1.17188 0.109202,-0.64457 -0.381483,-2.03256 -1.089437,-3.08441 -1.364117,-2.02677 -1.457514,-2.84508 -2.873885,-24.96449 -0.504727,-7.88229 -0.524962,-12.65671 -0.06595,-15.58441 0.363961,-2.32143 0.952086,-6.23946 1.307579,-8.70663 0.3555,-2.46716 0.917361,-5.38924 1.247971,-6.4935 0.330617,-1.10427 1.092553,-4.34533 1.693131,-7.20247 0.600572,-2.85714 1.499966,-6.37325 2.000051,-7.81377 0.500091,-1.44051 0.909344,-3.10674 0.909344,-3.70206 0,-0.59531 0.395437,-1.31621 0.877638,-1.60181 0.482202,-0.28561 1.058355,-2.10376 1.280946,-4.04069 0.222597,-1.93694 0.705052,-3.82118 1.071682,-4.18781 0.366637,-0.36663 0.668963,-1.11926 0.670911,-1.67284 0.0022,-0.55357 0.440513,-1.84457 0.974026,-2.86753 0.533513,-1.02297 0.968953,-2.14685 0.968953,-2.49848 0,-0.35163 0.460038,-1.70689 1.02222,-3.01086 0.562175,-1.30398 1.397014,-3.24701 1.855469,-4.31844 0.458454,-1.07143 1.460717,-3.29489 2.225801,-4.94115 0.765078,-1.64626 1.390016,-3.32645 1.390016,-3.73376 0,-0.40731 0.269861,-0.74067 0.598621,-0.74067 0.328766,0 0.789431,-0.87662 1.024756,-1.94805 0.235325,-1.07143 0.666219,-1.94806 0.956271,-1.94806 0.290045,0 0.727153,-0.8008 0.972758,-1.77937 0.245603,-0.97856 0.64284,-1.92824 0.88271,-2.11038 0.23987,-0.18215 1.110145,-1.64596 1.932833,-3.2531 0.822682,-1.60715 2.063418,-3.7987 2.757204,-4.87013 0.693779,-1.07143 1.582818,-2.75163 1.975954,-3.73377 0.393142,-0.98214 0.977762,-1.78571 1.299969,-1.78571 0.322202,0 0.585937,-0.30438 0.585937,-0.67598 0,-0.6387 2.462341,-4.46986 3.321582,-5.16818 0.21972,-0.17857 0.605298,-0.98214 0.856077,-1.78571 0.250773,-0.80357 0.728458,-1.46104 1.061536,-1.46104 0.333072,0 0.604961,-0.4474 0.604961,-0.99432 0,-0.54693 0.438312,-1.16288 0.974026,-1.36845 0.535714,-0.20558 0.974026,-0.63155 0.974026,-0.9474 0,-0.72833 4.500251,-6.68209 5.269634,-6.97164 0.316325,-0.11905 0.574519,-0.57548 0.574519,-1.01461 0,-1.27374 3.392689,-4.15131 5.513143,-4.67609 1.06789,-0.26428 2.300611,-0.79583 2.738182,-1.18202 1.743377,-1.53866 2.617059,-2.14493 6.444039,-4.46174 2.189578,-1.32555 4.264033,-2.40971 4.60887,-2.40971 0.344844,0 1.62152,-0.51136 2.837104,-1.13636 1.565675,-0.805 3.493864,-1.09986 6.612721,-1.0108 3.541025,0.10111 5.020525,-0.18484 7.561395,-1.46104 3.6722,-1.84445 10.907,-2.18265 13.68455,-0.6392 l 1.62337,0.903 -1.82756,0.69754 c -1.00539,0.38405 -2.28345,0.69881 -2.83964,0.69881 -0.82528,0 -0.86262,0.17914 -0.20293,0.97403 0.63098,0.76028 2.41306,0.97402 8.12069,0.97402 6.88066,0 7.33387,-0.0811 7.66919,-1.36338 0.32062,-1.22605 0.14862,-1.32254 -1.71596,-0.97276 -1.67939,0.31507 -2.24227,0.11609 -2.969,-1.04758 -0.83525,-1.33745 -0.70213,-1.60511 1.95312,-3.89483 1.56801,-1.35215 3.39041,-2.45979 4.04957,-2.46044 2.14587,-0.003 5.11934,-2.61065 4.81178,-4.21951 -0.31111,-1.62748 1.24276,-2.92461 3.50168,-2.92461 1.28154,0 5.09841,3.45133 5.09841,4.61013 0,0.51041 1.65554,0.89759 6.65585,1.55617 3.71341,0.48908 3.93523,1.26494 0.64935,2.27018 -1.33929,0.40973 -3.01948,0.9935 -3.73377,1.29744 -0.71428,0.30393 -3.25303,1.22462 -5.6425,2.04571 l -4.34507,1.49274 1.40144,2.49213 c 1.10381,1.96398 1.2209,2.60216 0.5555,3.0134 -0.65418,0.40431 -0.59527,0.61715 0.25872,0.94486 0.71413,0.27405 0.98222,0.877 0.7635,1.71342 -0.26411,1.00993 -0.0138,1.29109 1.1465,1.29109 0.8157,0 1.84588,-0.43831 2.29048,-0.97403 0.44461,-0.53571 1.07996,-0.97402 1.41158,-0.97402 1.21994,0 4.99426,-4.84421 5.38124,-6.90696 0.3989,-2.12632 2.98646,-4.78135 4.6596,-4.78135 0.48755,0 0.88525,-0.24011 0.88525,-0.53394 0,-0.29384 1.38798,-1.21095 3.08441,-2.0381 4.64589,-2.26526 6.65585,-4.39481 6.65585,-7.05028 0,-1.8421 0.60072,-2.82252 3.40909,-5.56387 1.875,-1.83025 4.43182,-4.04333 5.68182,-4.91832 1.25,-0.87498 2.56493,-1.82887 2.92207,-2.11927 0.35715,-0.29039 1.35237,-1.10721 2.21059,-1.81488 l 1.55996,-1.28602 -3.99503,0 c -3.11862,0 -3.9963,-0.21376 -3.9963,-0.97402 0,-0.53572 0.43832,-0.97403 0.97403,-0.97403 0.53571,0 0.97403,-0.28633 0.97403,-0.63667 0,-0.35034 0.80357,-0.82962 1.78571,-1.06534 1.92345,-0.46162 3.17751,-1.54508 4.98555,-4.30448 1.00561,-1.53477 1.03094,-1.86958 0.20165,-2.69887 -0.82929,-0.82931 -1.38045,-0.82778 -4.44653,0.008 -6.49416,1.76941 -10.63242,3.05008 -12.68897,3.92781 -1.12541,0.48032 -2.34251,0.87383 -2.70521,0.87383 -0.36268,0 -0.75731,0.27622 -0.87637,0.61384 -0.21444,0.60819 -6.94688,2.12003 -13.20389,2.9652 -1.78571,0.2412 -3.53896,0.65915 -3.8961,0.92837 -1.24479,0.93835 -7.63256,2.71059 -8.52906,2.36658 -0.73726,-0.28292 -0.69521,-0.58858 0.22448,-1.6627 0.61968,-0.72373 1.3497,-1.31518 1.62211,-1.31518 0.2724,0 1.91891,-0.87663 3.6602,-1.94806 1.7413,-1.07142 3.66741,-1.94805 4.28039,-1.94805 1.06247,0 3.45926,-2.15848 5.56006,-5.0071 2.56261,-3.4748 5.96387,-6.68121 7.08706,-6.68121 0.68546,0 1.34452,-0.21916 1.46357,-0.48701 0.11905,-0.26786 1.23833,-1.04352 2.48833,-1.72357 1.83369,-0.99761 4.06028,-1.29504 11.52598,-1.54221 9.75565,-0.32299 9.59126,-0.36992 9.28749,2.61643 -0.0636,0.625 0.31753,1.13636 0.84593,1.13636 0.5284,0 1.06262,0.30508 1.1871,0.67852 0.13187,0.39562 1.52286,-0.0109 3.33426,-0.97403 2.46421,-1.31023 4.0364,-1.65254 7.58167,-1.65254 2.46003,0 4.65321,-0.29221 4.87394,-0.64935 0.43664,-0.70651 6.07933,-0.89226 7.74021,-0.25492 1.47594,0.56636 1.26459,2.04039 -0.36653,2.55809 -0.76633,0.24322 -2.0227,1.17354 -2.79145,2.06726 -1.26285,1.46816 -2.05214,1.66993 -8.1841,2.10152 -3.73278,0.26272 -6.42248,0.52153 -5.97605,0.57452 1.5245,0.18085 0.80736,2.36684 -1.14017,3.47504 -1.51737,0.86342 -1.94425,1.55811 -1.94425,3.16431 0,1.86639 0.10569,1.97512 1.13636,1.16681 0.625,-0.49016 1.32317,-1.14869 1.55109,-1.46231 0.54422,-0.7488 1.99215,0.15431 1.5067,0.93978 -1.07222,1.7349 2.63771,0.20223 6.39458,-2.64179 2.35887,-1.78571 4.59483,-3.24675 4.96779,-3.24675 1.01726,0 0.81663,1.368 -0.39697,2.70901 -0.91826,1.01467 -0.93186,1.18709 -0.0964,1.18709 1.53829,0 5.06671,-1.36927 5.06671,-1.9658 0,-0.2967 0.36526,-0.93725 0.81169,-1.42426 0.44643,-0.48703 1.12795,-1.45812 1.51431,-2.15732 0.38635,-0.6992 1.33603,-1.55873 2.11039,-1.91128 0.77436,-0.35254 1.40777,-0.888 1.40777,-1.18963 0,-0.30163 1.02272,-1.79739 2.27272,-3.32285 1.25,-1.52545 2.27273,-2.96241 2.27273,-3.19348 0,-0.23107 -0.99118,-0.4198 -2.20297,-0.4198 -1.35943,0 -2.34648,-0.37304 -2.57711,-0.97402 -0.22511,-0.58663 -0.003,-0.97403 0.55803,-0.97403 0.51195,0 1.23771,-0.57417 1.61324,-1.27587 0.37554,-0.70169 1.84683,-1.62452 3.26958,-2.05078 2.92591,-0.87663 3.62847,-2.92798 1.12494,-3.28354 -1.67775,-0.23826 -1.67847,-2.06738 -0.003,-3.94176 1.77109,-1.98079 -0.29142,-1.22435 -2.21312,0.81169 -1.01125,1.07143 -2.13399,1.94805 -2.49595,1.94805 -0.36195,0 -1.44679,0.73052 -2.40969,1.62338 -0.96291,0.89286 -2.05472,1.62338 -2.42746,1.62338 -1.23402,0 -0.70304,2.06367 0.62018,2.4097 2.43375,0.63644 1.014,2.07079 -2.16366,2.18649 -1.22461,0.0446 -1.17527,0.1366 0.37794,0.70388 3.80789,1.39076 1.61731,2.24605 -6.81818,2.66208 -3.27006,0.16128 -4.38312,0.002 -4.38312,-0.62652 0,-0.46335 0.43832,-0.84213 0.97403,-0.84213 0.53572,0 0.97403,-0.26859 0.97403,-0.59735 0,-0.32876 0.87662,-0.7907 1.94805,-1.02602 1.07143,-0.23533 1.94805,-0.69726 1.94805,-1.02603 0,-0.32876 0.48786,-0.59735 1.0831,-0.59735 1.91313,0 0.63032,-0.46986 -2.53779,-0.92963 -2.63163,-0.38193 -3.0235,-0.30018 -2.69126,0.56564 0.31752,0.82743 -0.15895,1.01334 -2.60247,1.01334 -3.27794,0 -3.383,-0.18543 -2.30951,-4.05083 0.9379,-3.37715 2.7345,-4.24664 4.18907,-2.02668 0.99715,1.52184 1.39123,1.65177 3.96713,1.2987 2.86182,-0.39226 5.3698,-1.66885 7.5728,-3.85171 0.64515,-0.63927 1.96561,-1.47201 2.93349,-1.85167 l 1.75908,-0.6912 -1.62338,-0.62272 c -2.10832,-0.80912 -5.84416,-0.11109 -5.84416,1.09198 0,0.50915 -1.24188,1.49585 -2.75974,2.19282 l -2.75974,1.26826 -0.78885,-1.41157 c -0.98333,-1.75886 -1.02455,-2.38434 -0.15854,-2.38434 0.37161,0 1.55882,-0.65302 2.63799,-1.45089 1.95434,-1.4449 3.8461,-1.78867 20.38733,-3.7084 3.34405,-0.38811 12.87758,-0.58706 22.36835,-0.59228 z m -31.38951,11.59573 c 0.94835,0 1.55362,0.37958 1.55362,0.97403 0,0.64706 -0.64717,0.97402 -1.92776,0.97402 -1.4467,0 -1.83412,-0.24302 -1.55362,-0.97402 0.20558,-0.53572 1.07311,-0.97403 1.92776,-0.97403 z m 3.50167,0.64935 c 0.35715,0 0.64935,0.29221 0.64935,0.64935 0,0.35714 -0.2922,0.64935 -0.64935,0.64935 -0.35714,0 -0.64935,-0.29221 -0.64935,-0.64935 0,-0.35714 0.29221,-0.64935 0.64935,-0.64935 z m 9.74026,0.64935 c -1.46134,0 -1.84091,2.23566 -0.48701,2.86755 0.64827,0.30245 0.64755,0.45615 -0.004,0.75968 -0.44865,0.20908 -0.65083,0.64739 -0.44896,0.97403 0.49948,0.80818 5.48524,0.75742 5.48524,-0.0558 0,-0.35714 -0.31235,-0.64935 -0.69501,-0.64935 -1.03456,0 -2.55175,-1.71019 -2.55175,-2.87642 0,-0.58751 -0.55096,-1.01968 -1.2987,-1.01968 z m -3.94937,0.0799 c -0.22558,-0.009 -0.48346,0.0318 -0.71784,0.12556 -0.518,0.20729 -0.36329,0.36072 0.39317,0.39189 0.68452,0.0282 1.06804,-0.12412 0.85227,-0.33989 -0.10788,-0.10788 -0.30201,-0.16827 -0.5276,-0.17756 z m 9.94826,0.29424 c -0.304,0.0323 -0.57538,0.1588 -0.86242,0.3475 -0.76701,0.50424 -0.73175,0.7425 0.22068,1.47246 0.625,0.47901 1.13636,1.24504 1.13636,1.702 0,1.23613 2.04003,2.55367 3.98996,2.57711 0.94393,0.0114 1.87529,0.43541 2.06981,0.94232 0.28333,0.73837 -0.40315,0.89979 -3.44841,0.81169 -4.33432,-0.12538 -5.18754,0.35764 -3.9963,2.26512 1.5126,2.42206 1.34721,3.61817 -0.77364,5.58036 -1.13386,1.04903 -3.08493,3.05683 -4.33493,4.46175 -3.15919,3.55075 -6.74952,5.6439 -9.09217,5.30007 -1.18816,-0.17438 -2.0195,0.042 -2.2258,0.5796 -0.18107,0.47185 -0.86832,0.85861 -1.527,0.85861 -1.30122,0 -4.6875,3.1755 -4.6875,4.3958 0,0.41431 -0.60557,1.07825 -1.34688,1.47499 -1.54912,0.82906 -3.84792,3.01311 -3.84792,3.6564 0,0.23974 -0.48314,0.97026 -1.07421,1.62338 -0.59107,0.65312 -0.79321,1.18709 -0.44897,1.18709 0.34423,0 1.18203,0.4072 1.86181,0.90427 1.05012,0.76787 1.10543,1.06078 0.36906,1.94805 -1.08547,1.30792 -0.12181,1.33828 2.30317,0.0736 1.02296,-0.53351 2.51674,-0.97207 3.32031,-0.97402 0.80357,-0.002 1.46104,-0.29602 1.46104,-0.65316 0,-0.35714 0.34265,-0.64935 0.76096,-0.64935 0.4183,0 1.3076,-0.49473 1.97595,-1.09958 2.02676,-1.83419 5.69127,-2.74543 12.8475,-3.19349 3.75,-0.23479 7.21208,-0.73934 7.69329,-1.12114 0.74904,-0.59432 3.43468,-0.77015 15.89767,-1.03998 1.71635,-0.0371 1.80782,-0.17394 1.39002,-2.07615 -0.43452,-1.97835 -0.39487,-2.02254 1.4027,-1.57137 1.0176,0.25539 2.0624,0.80703 2.32092,1.22514 0.33816,0.54691 0.78915,0.44086 1.60689,-0.37668 0.7003,-0.70011 0.8333,-1.13636 0.34751,-1.13636 -0.43368,0 -0.78887,-0.73052 -0.78887,-1.62338 0,-1.36054 0.30748,-1.62337 1.89479,-1.62337 1.04166,0 2.00345,0.33105 2.13829,0.73559 0.37257,1.11771 2.98182,0.0441 3.44587,-1.41792 0.2209,-0.69602 0.7835,-1.26572 1.25051,-1.26572 0.467,0 1.01474,-0.83015 1.21753,-1.84406 0.27418,-1.37089 0.91921,-2.01882 2.51623,-2.53019 2.06506,-0.66124 2.08105,-0.69085 0.40078,-0.75461 -0.96107,-0.0365 -1.90785,-0.3238 -2.10278,-0.6392 -0.19493,-0.3154 -1.96515,-0.77494 -3.93415,-1.02096 -1.96901,-0.24601 -3.58031,-0.71867 -3.58031,-1.05011 0,-0.33145 -0.51137,-0.60429 -1.13637,-0.60624 -0.625,-0.002 -1.9196,-0.4133 -2.87769,-0.91315 -0.95808,-0.49985 -2.63828,-1.10628 -3.73376,-1.34689 -1.09549,-0.24061 -1.99244,-0.68252 -1.99244,-0.98291 0,-0.30039 -0.87663,-0.7387 -1.94806,-0.97402 -1.07142,-0.23533 -1.94805,-0.69726 -1.94805,-1.02603 0,-0.32876 -0.4261,-0.59735 -0.94739,-0.59735 -0.52128,0 -2.10446,-1.09578 -3.51816,-2.43506 -6.42272,-6.08465 -8.34812,-7.72054 -9.66543,-7.58041 z m -13.12018,2.23848 c -1.3322,-0.0394 -2.58795,0.21646 -2.78384,0.79647 -0.15077,0.44643 0.48192,1.27877 1.4065,1.84913 1.29996,0.80192 2.04848,0.88211 3.30383,0.35511 2.24567,-0.94273 2.23137,-0.91969 1.31265,-2.02668 -0.4984,-0.60054 -1.90695,-0.93465 -3.23914,-0.97403 z m 49.4686,11.10365 c -0.28775,0.0137 -0.50868,0.0724 -0.62526,0.18896 -0.21624,0.21625 0.1704,0.81989 0.85861,1.34056 0.68822,0.52066 2.09026,0.95632 3.11613,0.96768 1.5482,0.0172 1.73419,-0.13805 1.09197,-0.91188 -0.69323,-0.83529 -3.19456,-1.64456 -4.44145,-1.58532 z m 72.2491,12.90711 c -0.48576,0 -1.06402,0.2922 -1.28475,0.64935 -0.22073,0.35714 -1.11432,0.64935 -1.9861,0.64935 -1.65146,0 -2.01626,0.79875 -0.97656,2.13829 2.4644,3.17514 6.41511,7.19835 7.50051,7.63875 1.95076,0.79151 2.78896,0.68008 1.31391,-0.17502 -3.0984,-1.79619 -3.64446,-2.83007 -3.66401,-6.92218 -0.014,-2.9128 -0.25646,-3.97854 -0.903,-3.97854 z m -91.16401,13.06184 c -0.54204,-0.009 -1.18003,0.34491 -1.99625,1.04378 -1.83339,1.56981 -1.5986,3.36102 0.81169,6.18658 2.01188,2.35853 2.21044,2.43442 6.31088,2.41351 3.2228,-0.0164 4.59724,-0.32456 5.75411,-1.28856 l 1.51937,-1.26572 -1.1947,-2.59106 c -1.27682,-2.76889 -2.32354,-3.2137 -3.88595,-1.65128 -0.53572,0.53571 -1.80464,0.97402 -2.82062,0.97402 -1.42797,0 -2.04371,-0.44215 -2.71028,-1.94805 -0.55326,-1.24991 -1.09134,-1.86151 -1.78825,-1.87322 z m 24.79074,29.53785 c -0.99225,-0.0172 -3.43675,2.07543 -5.85304,5.04768 -0.92162,1.13367 -1.10481,5.99066 -0.24604,6.52141 0.31101,0.19222 0.73753,1.2082 0.94739,2.25751 0.29561,1.47805 0.65937,1.83449 1.61704,1.58406 2.09714,-0.54842 2.14036,1.44735 0.071,3.29114 -1.0462,0.93216 -1.9024,2.27777 -1.9024,2.98929 0,0.71154 -0.29221,1.29363 -0.64935,1.29363 -0.89104,0 -0.81864,2.16685 0.10274,3.08822 0.5685,0.56851 0.25354,1.03487 -1.2949,1.91635 -2.42611,1.38111 -2.51055,1.89289 -0.64174,3.88215 1.81085,1.92757 3.16564,1.89798 5.33812,-0.11541 1.69959,-1.57513 2.32611,-1.81173 6.72052,-2.54287 2.84907,-0.47402 5.35968,-2.21222 5.35968,-3.71094 0,-0.6763 -0.85607,-2.41316 -1.90366,-3.85932 -1.0476,-1.44616 -2.09394,-3.48963 -2.32473,-4.54038 -0.23077,-1.05075 -0.66932,-1.91001 -0.97402,-1.91001 -0.3047,0 -0.71572,-0.51136 -0.91442,-1.13636 -0.1987,-0.625 -1.14802,-1.98382 -2.10912,-3.01973 l -1.74767,-1.88337 1.74006,-1.38748 c 2.16604,-1.72714 2.18849,-2.50404 0.10399,-3.61963 -1.1126,-0.59545 -1.42441,-1.08801 -0.97402,-1.5384 0.95025,-0.95025 0.81646,-2.15255 -0.28663,-2.57584 -0.0528,-0.0203 -0.11267,-0.0306 -0.17882,-0.0317 z m -11.90646,10.97808 c -1.48773,0.0248 -2.55048,0.54385 -2.55048,1.36845 0,0.5595 -0.71387,0.89793 -1.89351,0.89793 -2.12174,0 -2.78649,1.02217 -1.84786,2.84218 0.49421,0.95827 0.26755,1.55398 -1.06154,2.78637 -0.92965,0.86203 -1.69059,2.13982 -1.69059,2.83965 0,1.09239 0.45515,1.27206 3.21632,1.27206 1.7689,0 3.95864,-0.33851 4.86632,-0.75208 2.34908,-1.07031 4.25502,-4.64316 4.25502,-7.9761 0,-2.50957 -0.18012,-2.84308 -1.68805,-3.13134 -0.56679,-0.10835 -1.10972,-0.15539 -1.60563,-0.14712 z m 150.89539,29.66086 c 1.5639,-0.30989 6.50687,4.92389 5.91265,6.26015 -1.13767,2.55806 -0.3453,4.94936 2.47184,7.46246 4.59584,4.09989 6.56894,5.30207 9.11881,5.55499 0.45007,0.0447 1.6189,0.82387 2.59741,1.73118 2.13279,1.97761 2.40109,3.85963 0.4794,3.35709 -2.15202,-0.56276 -1.52029,0.43282 3.45348,5.4548 6.6661,6.73083 8.07929,9.91683 5.88728,13.26223 -0.57682,0.88029 -1.5265,1.58716 -2.11039,1.57138 -1.3889,-0.0375 -5.16224,-2.09964 -7.30393,-3.99122 -1.93039,-1.70502 -4.4719,-6.12708 -4.4719,-7.78207 0,-0.60921 -0.2922,-1.28851 -0.64935,-1.50923 -0.35714,-0.22073 -0.64935,-0.96509 -0.64935,-1.65382 0,-0.74005 -0.99597,-1.88288 -2.43506,-2.79398 -1.33929,-0.84792 -5.4302,-4.49719 -9.09091,-8.11054 l -6.65585,-6.57087 0,-3.7566 c 0,-4.05647 1.6549,-8.13105 3.44587,-8.48595 z m -27.57964,7.67046 c 1.37981,0 2.98503,3.94206 2.38053,5.84669 -0.49576,1.56198 0.15169,3.89357 1.08183,3.89357 0.72292,0 4.28833,1.45584 7.25066,2.96139 1.01108,0.51387 2.17334,0.93471 2.58345,0.93471 1.37382,0 6.78784,4.11013 7.90508,6.00142 0.62163,1.05241 0.94661,2.50495 0.74194,3.32032 -0.46046,1.83479 -5.01599,3.94061 -7.43203,3.43572 -0.95715,-0.20001 -3.64067,-0.75999 -5.9621,-1.24417 -5.41436,-1.12926 -8.91275,-0.50765 -11.75553,2.08883 -1.70476,1.55706 -2.76057,1.9823 -4.92339,1.9823 -2.38983,0 -3.10202,-0.36409 -5.40154,-2.7572 -1.45706,-1.51637 -2.8235,-3.48877 -3.03622,-4.38312 -0.21271,-0.89435 -0.54013,-1.89286 -0.72671,-2.21946 -1.04492,-1.82913 -1.12851,-10.03094 -0.11288,-11.04657 0.34789,-0.34789 0.63159,-1.24033 0.63159,-1.9823 0,-0.74196 0.47541,-2.02781 1.05647,-2.85739 l 1.05646,-1.50797 5.01598,4.98554 c 4.66,4.63267 5.09122,4.9103 6.0864,3.91513 1.43424,-1.43425 1.35011,-3.04686 -0.22829,-4.39834 -0.71429,-0.61159 -1.29871,-1.56295 -1.29871,-2.11419 0,-1.35828 3.66378,-4.85491 5.08701,-4.85491 z m -76.91508,22.7983 c -0.23116,-0.0295 -0.59635,0.10304 -1.1706,0.3234 -1.20342,0.46179 -1.3514,2.26823 -0.27395,3.34568 1.09646,1.09646 1.84405,0.35477 1.84405,-1.8301 0,-1.29102 -0.0142,-1.78989 -0.3995,-1.83898 z m -1.66142,7.07183 c -0.92254,0 -0.58399,5.81414 0.45531,7.82391 0.54488,1.0537 1.3892,1.91635 1.87702,1.91635 1.13374,0 1.826,-2.72217 1.27968,-5.03247 -0.43104,-1.82282 -2.64461,-4.70779 -3.61201,-4.70779 z m 17.31306,16.38596 c -0.71615,0.0225 -0.71895,0.32818 -0.52253,1.07929 0.18638,0.71272 0.82069,1.42398 1.40904,1.58025 1.87526,0.49809 4.55301,0.45198 4.88408,-0.0837 0.65442,-1.05887 -0.65383,-1.91104 -3.59932,-2.34502 -1.05446,-0.15536 -1.74159,-0.24435 -2.17127,-0.23082 z m 127.30951,21.97138 c 0.56235,0.01 1.16116,0.28748 1.71088,0.88145 4.23617,4.57732 7.40997,7.51445 8.12069,7.51445 0.46967,0 0.85354,0.29221 0.85354,0.64936 0,0.35714 0.73681,0.64935 1.63733,0.64935 1.11636,0 1.87364,-0.51656 2.37799,-1.62338 0.40675,-0.89286 0.98494,-1.62338 1.28475,-1.62338 0.2998,0 0.54408,-0.43831 0.54408,-0.97402 0,-1.34345 1.24987,-1.22702 1.7426,0.16233 0.22162,0.625 0.84051,1.64535 1.3748,2.26766 1.01993,1.18777 2.27708,7.43651 1.68806,8.38956 -0.54118,0.87559 -2.06461,-1.01831 -2.75721,-3.42685 -0.54403,-1.89174 -0.63929,-1.45642 -0.68994,3.1212 -0.0322,2.92535 -0.35181,5.49914 -0.70896,5.71986 -0.35714,0.22073 -0.64935,0.90301 -0.64935,1.51685 0,0.61383 -0.58666,1.61959 -1.30504,2.23467 -0.71837,0.61509 -1.5325,1.11861 -1.80854,1.11861 -0.95643,0 -2.73057,-3.78101 -2.73057,-5.82006 0,-1.13796 -0.27524,-1.87842 -0.62018,-1.66522 -0.34156,0.21108 -0.44661,0.83811 -0.23336,1.39382 0.29571,0.77057 0.0184,0.95877 -1.16554,0.79139 -1.21129,-0.17125 -1.5955,-0.67269 -1.75147,-2.2816 -0.10993,-1.13412 -0.6213,-2.41218 -1.13636,-2.83965 -0.51507,-0.42747 -0.93725,-1.17959 -0.93725,-1.67157 0,-0.49198 -0.43831,-0.89412 -0.97403,-0.89412 -0.53571,0 -0.97402,-0.30686 -0.97402,-0.68106 0,-0.37419 -0.65747,-1.32581 -1.46104,-2.11546 -2.03494,-1.99969 -3.73377,-5.41913 -3.73377,-7.51573 0,-2.0292 1.06473,-3.30032 2.30191,-3.27846 z m -37.46069,22.32397 c 0.67076,0.0208 1.63651,0.91982 3.77689,3.31143 1.90195,2.12526 3.4579,4.22966 3.45855,4.67609 6.5e-4,0.44643 0.26832,0.81169 0.59482,0.81169 0.32649,0 1.45872,1.38798 2.51496,3.08441 1.05623,1.69643 2.46937,3.71432 3.14022,4.48458 0.67084,0.77026 1.65711,2.04564 2.19282,2.83457 0.53572,0.78894 1.42235,2.05839 1.96962,2.82062 1.06727,1.48645 2.48142,4.35932 4.19921,8.52906 1.70988,4.15053 3.12936,6.72882 4.56195,8.2881 1.65682,1.80327 6.15234,9.17368 6.15234,10.0865 0,0.36995 0.3172,0.7779 0.70389,0.90681 0.68351,0.22784 1.1032,2.51635 2.63164,14.32249 0.79124,6.11208 1.46079,6.8651 3.55494,4.00518 0.67507,-0.92186 1.76521,-2.30985 2.42365,-3.08442 1.41409,-1.66352 7.29795,-10.55794 9.73647,-14.71946 1.8746,-3.19906 2.74441,-4.99063 4.09902,-8.44156 0.85058,-2.1669 0.87342,-2.06108 0.49589,2.27273 -0.21779,2.5 -0.68084,5.71428 -1.02856,7.14285 -0.34773,1.42858 -0.91791,4.20455 -1.267,6.16884 -0.96344,5.4202 -2.41099,9.16676 -4.17385,10.80052 -0.87513,0.81101 -1.59294,1.70753 -1.59294,1.99244 -10e-4,0.28491 -1.8911,2.34502 -4.19922,4.57717 -2.78799,2.69629 -4.7226,4.05844 -5.76299,4.05844 -2.60863,0 -3.21282,-1.25041 -3.61328,-7.46754 -0.0995,-1.54536 -3.21207,-5.10346 -7.04013,-8.04966 -1.51785,-1.1682 -2.75974,-2.66726 -2.75974,-3.33046 0,-0.6632 -0.25946,-1.36623 -0.57706,-1.5625 -0.31759,-0.19628 -0.76639,-1.16291 -0.99685,-2.14843 -0.58045,-2.48191 -2.37566,-5.92111 -4.06605,-7.78968 -1.3476,-1.48969 -1.76939,-2.76011 -3.74011,-11.25583 -1.07721,-4.64378 -1.86335,-6.09702 -5.32036,-9.82904 -1.82377,-1.96887 -2.83203,-3.65444 -2.83203,-4.73569 0,-0.92323 -0.29583,-2.03161 -0.65823,-2.46297 -2.18201,-2.59696 -5.18593,-6.97677 -5.18593,-7.56265 0,-0.37857 -0.21916,-0.68859 -0.48701,-0.68867 -0.26786,-8e-5 -1.48716,-2.0859 -2.71028,-4.63423 -2.15746,-4.4948 -2.18655,-4.65863 -0.97402,-5.49665 0.6874,-0.47512 1.66568,-1.22422 2.1738,-1.66523 0.19058,-0.16543 0.38137,-0.25679 0.60496,-0.24985 z"
       id="path3349"
       inkscape:connector-curvature="0" />
  </g>
</svg>
